<svg xmlns="http://www.w3.org/2000/svg" width="140.582" height="44.452" viewBox="0 0 140.582 44.452">
  <path id="Path_1" d="M832.318,1296.71l7.381-27.16h-2.67l.3-1.208h7.324l5.538,19.926.023.88,5.338-19.6h-2.667l.3-1.208h7.449l7.873,28.361h-1.546v.007H863.9l-6.93-24.759-6.609,24.759h-2.318l-6.943-24.8-6.621,24.8h-2.165Zm122.407,0H952.56l7.046-25.928h0l.335-1.232h-2.789l.3-1.208h7.571l5.352,19.278h.035v.124h0l2.487,8.959h-1.546v.007H968.29l-2.254-8.051h-9.162l-2.149,8.051Zm10.86-9.662-4.238-15.141-4.042,15.141Zm-59.506,9.662h-2.166l7.046-25.928h0l.334-1.232h-2.788l.3-1.208h7.571c2.634,9.487,5.244,18.889,7.873,28.361h-1.546l0,.007h-3.066l-2.254-8.051h-9.162l-2.149,8.051Zm10.86-9.662-4.238-15.141-4.043,15.141Zm12.669-17.5h-2.729l.3-1.208H932.4v.006h.317l12.551,21.034v-21.042h2.09v28.369h-2.577L931.7,1275.056v21.654h-2.09v-27.16Zm-55.89,0h-2.667l.3-1.208h6.868V1296.7h-4.506V1269.55Zm13.413,0h-2.667l.3-1.208h6.869V1294.9H901.3l-.491,1.805H887.13V1269.55Z" transform="translate(-832.318 -1268.341)" fill="#fff"/>
  <path id="Path_2" d="M946.7,1317.6v.438h-3.072v-5.1H946.7v.524h-.086l-2.26-.042v1.8l2.168-.014h.085v.509h-.085l-2.168-.014v1.857l2.26-.042.086,0v.087Zm-5.646-4.577v5.015h-.732v-5.1h.732v.085Zm-5.849.4v2.111h.912a1.39,1.39,0,0,0,.423-.064h0a1.1,1.1,0,0,0,.188-.08.979.979,0,0,0,.167-.114h0a.856.856,0,0,0,.137-.145h0a.91.91,0,0,0,.106-.18h0a1.014,1.014,0,0,0,.068-.215,1.431,1.431,0,0,0,.024-.256h0a1.438,1.438,0,0,0-.024-.257,1.015,1.015,0,0,0-.068-.216.945.945,0,0,0-.105-.179.873.873,0,0,0-.138-.146h0a1.049,1.049,0,0,0-.167-.113,1.123,1.123,0,0,0-.188-.081h0a1.4,1.4,0,0,0-.423-.063Zm1.277,2.5,1.833,1.983.131.141h-.974l-.025-.027-2.138-2.339-.1-.116v2.482h-.726v-5.1h1.688a2.4,2.4,0,0,1,.378.029,2.137,2.137,0,0,1,.348.087,1.966,1.966,0,0,1,.31.138,1.618,1.618,0,0,1,.268.186,1.455,1.455,0,0,1,.217.225,1.409,1.409,0,0,1,.164.262h0a1.37,1.37,0,0,1,.1.293h0a1.484,1.484,0,0,1,.036.315h0a1.366,1.366,0,0,1-.034.3,1.249,1.249,0,0,1-.1.276,1.416,1.416,0,0,1-.155.247h0a1.428,1.428,0,0,1-.206.214h0a1.55,1.55,0,0,1-.251.175,1.813,1.813,0,0,1-.287.131h0a1.872,1.872,0,0,1-.319.083h0q-.078.012-.159.02Zm-4.644.013a2.586,2.586,0,0,0,.037-.436,2.615,2.615,0,0,0-.037-.438,2.336,2.336,0,0,0-.106-.4h0a2.341,2.341,0,0,0-.171-.365,2.07,2.07,0,0,0-.225-.315,1.891,1.891,0,0,0-.271-.257,1.812,1.812,0,0,0-.314-.2,1.612,1.612,0,0,0-.345-.122,1.723,1.723,0,0,0-.373-.042h0a1.711,1.711,0,0,0-.372.042h0a1.619,1.619,0,0,0-.346.122h0a1.824,1.824,0,0,0-.586.453,2.087,2.087,0,0,0-.225.316,2.233,2.233,0,0,0-.169.364h0a2.381,2.381,0,0,0-.108.4,2.589,2.589,0,0,0,0,.875,2.3,2.3,0,0,0,.108.4h0a2.181,2.181,0,0,0,.169.363,2,2,0,0,0,.225.314h0a1.9,1.9,0,0,0,.272.257h0a1.72,1.72,0,0,0,.313.193h0a1.56,1.56,0,0,0,.346.122h0a1.7,1.7,0,0,0,.372.042h0a1.716,1.716,0,0,0,.373-.042,1.558,1.558,0,0,0,.346-.122,1.786,1.786,0,0,0,.312-.193,1.868,1.868,0,0,0,.272-.257h0a2.085,2.085,0,0,0,.225-.314h0a2.319,2.319,0,0,0,.171-.364h0a2.357,2.357,0,0,0,.106-.4Zm.772-.861a2.783,2.783,0,0,1,.034.425h0a2.753,2.753,0,0,1-.034.422,2.471,2.471,0,0,1-.1.4h0a2.679,2.679,0,0,1-.157.374,2.624,2.624,0,0,1-.475.647,2.674,2.674,0,0,1-.3.258,2.519,2.519,0,0,1-.341.21h0a2.771,2.771,0,0,1-.376.158,2.578,2.578,0,0,1-.4.1,2.743,2.743,0,0,1-.424.034h0a2.744,2.744,0,0,1-.425-.034,2.57,2.57,0,0,1-.4-.1,2.824,2.824,0,0,1-.375-.157,2.733,2.733,0,0,1-.343-.212,2.686,2.686,0,0,1-.3-.258,2.622,2.622,0,0,1-.262-.306,2.581,2.581,0,0,1-.212-.341,2.617,2.617,0,0,1-.158-.374h0a2.58,2.58,0,0,1-.1-.4,2.729,2.729,0,0,1-.034-.422h0a2.748,2.748,0,0,1,.034-.424,2.514,2.514,0,0,1,.1-.4,2.669,2.669,0,0,1,.158-.377,2.611,2.611,0,0,1,.212-.341,2.684,2.684,0,0,1,.26-.3,2.567,2.567,0,0,1,.3-.26,2.6,2.6,0,0,1,.343-.212,2.715,2.715,0,0,1,.375-.157h0a2.551,2.551,0,0,1,.4-.1,2.775,2.775,0,0,1,.425-.033h0a2.767,2.767,0,0,1,.427.034,2.457,2.457,0,0,1,.4.1h0a2.706,2.706,0,0,1,.376.157h0a2.613,2.613,0,0,1,.341.212,2.577,2.577,0,0,1,.3.26,2.7,2.7,0,0,1,.26.3,2.559,2.559,0,0,1,.212.341,2.761,2.761,0,0,1,.158.376h0a2.5,2.5,0,0,1,.1.4Zm-18.139,2.533v.438h-3.072v-5.1h3.072v.524h-.086l-2.26-.042v1.8l2.168-.014h.085v.509h-.085l-2.168-.014v1.857l2.26-.042.086,0v.087Zm-9.367-1.672a2.9,2.9,0,0,1-.033-.437h0a2.761,2.761,0,0,1,.033-.429,2.549,2.549,0,0,1,.1-.406,2.723,2.723,0,0,1,.155-.376,2.6,2.6,0,0,1,.208-.343,2.637,2.637,0,0,1,.255-.3h0a2.544,2.544,0,0,1,.3-.258,2.516,2.516,0,0,1,.33-.21,2.48,2.48,0,0,1,.36-.157,2.433,2.433,0,0,1,.782-.13h0a3.211,3.211,0,0,1,.368.022,2.546,2.546,0,0,1,.337.063,3.034,3.034,0,0,1,.3.094,2.453,2.453,0,0,1,.275.12h0c.084.044.166.089.241.136s.148.1.215.147l.071.052-.056.069-.324.4-.063.076-.066-.073a2.264,2.264,0,0,0-.19-.185,2.04,2.04,0,0,0-.206-.155h0a1.948,1.948,0,0,0-.217-.123,1.791,1.791,0,0,0-.228-.092h0a1.65,1.65,0,0,0-.23-.055,1.518,1.518,0,0,0-.232-.018h0a1.674,1.674,0,0,0-.3.028,1.5,1.5,0,0,0-.275.08,1.658,1.658,0,0,0-.254.131,1.635,1.635,0,0,0-.226.173h0a1.888,1.888,0,0,0-.2.214,2.034,2.034,0,0,0-.171.249h0a2.278,2.278,0,0,0-.138.281,2.353,2.353,0,0,0-.1.308h0a2.538,2.538,0,0,0-.064.331,2.722,2.722,0,0,0-.021.344h0a2.745,2.745,0,0,0,.036.446,2.3,2.3,0,0,0,.1.407h0a2.361,2.361,0,0,0,.162.363,1.993,1.993,0,0,0,.214.311h0a1.821,1.821,0,0,0,.257.253,1.671,1.671,0,0,0,.293.189,1.467,1.467,0,0,0,.319.116h0a1.533,1.533,0,0,0,.342.041h0a2.193,2.193,0,0,0,.265-.018,1.825,1.825,0,0,0,.244-.051c.079-.023.152-.049.222-.076a1.931,1.931,0,0,0,.2-.1h0c.064-.035.125-.071.182-.106s.109-.073.158-.111h0l.134-.106c.041-.035.079-.068.115-.1l.062-.056.057.061.187.2.054.058-.054.058q-.067.07-.149.142h0c-.054.047-.114.1-.177.144s-.131.095-.2.14-.143.083-.222.123h0a2.547,2.547,0,0,1-.244.109h0a2.693,2.693,0,0,1-.262.086,2.231,2.231,0,0,1-.279.057,2.415,2.415,0,0,1-.294.019h0a2.633,2.633,0,0,1-.4-.032,2.438,2.438,0,0,1-.383-.093h0a2.452,2.452,0,0,1-.357-.152,2.475,2.475,0,0,1-.871-.76h0a2.409,2.409,0,0,1-.2-.342,2.676,2.676,0,0,1-.152-.376,2.628,2.628,0,0,1-.1-.411Zm-5.757,0a3,3,0,0,1-.033-.437h0a2.838,2.838,0,0,1,.034-.429,2.536,2.536,0,0,1,.1-.406,2.816,2.816,0,0,1,.155-.376,2.782,2.782,0,0,1,.208-.343,2.637,2.637,0,0,1,.255-.3h0a2.543,2.543,0,0,1,.3-.258,2.512,2.512,0,0,1,.69-.367,2.429,2.429,0,0,1,.782-.13h0a3.2,3.2,0,0,1,.368.022,2.544,2.544,0,0,1,.337.063,3,3,0,0,1,.3.094,2.489,2.489,0,0,1,.274.12h0c.084.044.165.089.241.136s.148.1.215.147l.071.052-.055.069-.325.4-.062.076-.066-.073a2.067,2.067,0,0,0-.19-.185,1.965,1.965,0,0,0-.2-.155h0a1.931,1.931,0,0,0-.216-.123,1.829,1.829,0,0,0-.228-.092h0a1.671,1.671,0,0,0-.23-.055,1.532,1.532,0,0,0-.233-.018h0a1.675,1.675,0,0,0-.3.028,1.474,1.474,0,0,0-.274.08,1.627,1.627,0,0,0-.255.131,1.681,1.681,0,0,0-.226.173h0a1.777,1.777,0,0,0-.2.214,1.96,1.96,0,0,0-.171.249h0a2.216,2.216,0,0,0-.139.281,2.39,2.39,0,0,0-.1.308h0a2.538,2.538,0,0,0-.064.331,2.747,2.747,0,0,0-.021.344h0a2.829,2.829,0,0,0,.036.446,2.3,2.3,0,0,0,.1.407h0a2.373,2.373,0,0,0,.162.363,2.011,2.011,0,0,0,.214.311h0a1.784,1.784,0,0,0,.256.253,1.689,1.689,0,0,0,.293.189,1.46,1.46,0,0,0,.32.116h0a1.532,1.532,0,0,0,.342.041h0a2.21,2.21,0,0,0,.265-.018,1.808,1.808,0,0,0,.244-.051c.079-.023.153-.049.222-.076a1.875,1.875,0,0,0,.2-.1h0c.064-.035.125-.071.182-.106s.109-.073.158-.111h0l.134-.106c.041-.035.08-.068.115-.1l.062-.056.057.061.188.2.054.058-.055.058q-.067.07-.149.142h0c-.054.047-.113.1-.177.144s-.131.095-.2.14-.143.083-.222.123h0a2.576,2.576,0,0,1-.245.109h0a2.744,2.744,0,0,1-.263.086,2.2,2.2,0,0,1-.279.057,2.406,2.406,0,0,1-.294.019h0a2.636,2.636,0,0,1-.4-.032,2.408,2.408,0,0,1-.382-.093h0a2.452,2.452,0,0,1-.357-.152,2.578,2.578,0,0,1-.328-.205,2.488,2.488,0,0,1-.292-.255,2.439,2.439,0,0,1-.25-.3h0a2.5,2.5,0,0,1-.206-.342,2.862,2.862,0,0,1-.152-.376,2.628,2.628,0,0,1-.1-.411Zm-4.75-.117h1.587l-.806-1.76-.781,1.76Zm.98-2.99,2.368,5.1.056.12h-.8l-.023-.05-.778-1.7h-2.014l-.75,1.7-.022.05h-.614l.055-.12,2.369-5.1.077-.165.077.165Zm-8.219,4.369h0l.024-.024-1.621-1.742c-.029.022-.056.045-.082.069a1.349,1.349,0,0,0-.128.138,1.1,1.1,0,0,0-.106.165,1.249,1.249,0,0,0-.083.2h0a1.292,1.292,0,0,0-.055.228h0a1.761,1.761,0,0,0-.02.263h0a1.158,1.158,0,0,0,.021.212h0a1.16,1.16,0,0,0,.061.208,1.249,1.249,0,0,0,.1.2h0a1.286,1.286,0,0,0,.132.177,1.078,1.078,0,0,0,.16.147h0a1.191,1.191,0,0,0,.19.114h0a.913.913,0,0,0,.211.073h0a1.119,1.119,0,0,0,.233.026h0a1.092,1.092,0,0,0,.163-.014,1.08,1.08,0,0,0,.159-.039,1.423,1.423,0,0,0,.155-.059c.05-.022.1-.047.144-.073h0c.045-.026.089-.055.132-.085h0c.041-.029.079-.059.116-.09h0c.035-.029.066-.058.095-.087Zm1.007-1.963.016.05c.02.07.039.145.053.224a2.257,2.257,0,0,1,.031.241h0a2.252,2.252,0,0,1,0,.253,2.13,2.13,0,0,1-.023.261,2.409,2.409,0,0,1-.055.263h0a2,2,0,0,1-.088.263c-.028.066-.059.132-.093.2l1.061,1.176h-.988l-.527-.589c-.033.031-.068.061-.1.091a2.168,2.168,0,0,1-.2.143,1.763,1.763,0,0,1-.231.125,2.448,2.448,0,0,1-.263.1h0a1.828,1.828,0,0,1-.286.065,2.065,2.065,0,0,1-.306.024h0a2.614,2.614,0,0,1-.365-.026h0a1.824,1.824,0,0,1-.322-.075,1.85,1.85,0,0,1-.276-.117h0a1.577,1.577,0,0,1-.236-.15h0a1.647,1.647,0,0,1-.193-.176,1.449,1.449,0,0,1-.155-.2h0a1.711,1.711,0,0,1-.117-.206h0a1.508,1.508,0,0,1-.128-.416,1.249,1.249,0,0,1-.016-.2h0a1.512,1.512,0,0,1,.024-.258,1.485,1.485,0,0,1,.066-.245h0a1.773,1.773,0,0,1,.1-.228,1.811,1.811,0,0,1,.13-.208h0a2.113,2.113,0,0,1,.15-.184,1.977,1.977,0,0,1,.166-.162h0a1.789,1.789,0,0,1,.173-.133c.024-.016.048-.031.073-.046l-.014-.015c-.031-.034-.063-.071-.1-.109h0c-.034-.04-.068-.082-.1-.124h0c-.031-.043-.061-.088-.089-.133h0a1.454,1.454,0,0,1-.08-.151h0a1.6,1.6,0,0,1-.064-.164h0a1.192,1.192,0,0,1-.042-.184h0a1.289,1.289,0,0,1-.015-.194h0a1.129,1.129,0,0,1,.026-.233,1.092,1.092,0,0,1,.072-.22h0a1.1,1.1,0,0,1,.117-.2h0a1.14,1.14,0,0,1,.157-.177,1.2,1.2,0,0,1,.193-.147h0a1.376,1.376,0,0,1,.223-.111h0a1.352,1.352,0,0,1,.254-.071,1.659,1.659,0,0,1,.276-.025h0a2.04,2.04,0,0,1,.338.027,1.477,1.477,0,0,1,.3.081h0a1.351,1.351,0,0,1,.253.132h0a1.3,1.3,0,0,1,.218.181l.053.053-.044.061-.246.344-.067.094-.068-.094a1.118,1.118,0,0,0-.082-.1,1.219,1.219,0,0,0-.1-.1h0a.9.9,0,0,0-.112-.083.924.924,0,0,0-.13-.067.718.718,0,0,0-.14-.044h0a.864.864,0,0,0-.153-.016h0a.745.745,0,0,0-.181.023.49.49,0,0,0-.146.063h0a.6.6,0,0,0-.119.1.564.564,0,0,0-.087.128h0a.7.7,0,0,0-.055.157.788.788,0,0,0-.019.176h0a.705.705,0,0,0,.018.159h0a.615.615,0,0,0,.052.141,1.108,1.108,0,0,0,.088.144h0a1.571,1.571,0,0,0,.119.147c.047.053.1.109.152.167h0c.058.062.117.125.176.188h0l1.5,1.609c.013-.045.024-.09.034-.135a1.69,1.69,0,0,0,.034-.268,2.066,2.066,0,0,0-.01-.26,1.68,1.68,0,0,0-.047-.247,1.736,1.736,0,0,0-.081-.229h0a1.264,1.264,0,0,0-.066-.131Zm-1.007-.648h1.971v.657h-1.971v-.657ZM874.9,1317.6v.438h-3.072v-5.1H874.9v.524h-.086l-2.261-.042v1.8l2.168-.014h.085v.509h-.085l-2.168-.014v1.857l2.261-.042.086,0v.087Zm-5.752-1.673a2.655,2.655,0,0,0,.038-.435h0a2.687,2.687,0,0,0-.038-.438,2.337,2.337,0,0,0-.107-.4h0a2.346,2.346,0,0,0-.171-.365,2.017,2.017,0,0,0-.225-.315,1.891,1.891,0,0,0-.271-.257,1.816,1.816,0,0,0-.314-.2,1.6,1.6,0,0,0-.345-.122,1.721,1.721,0,0,0-.373-.042h0a1.715,1.715,0,0,0-.372.042h0a1.6,1.6,0,0,0-.345.122h0a1.826,1.826,0,0,0-.586.453,2.1,2.1,0,0,0-.225.316,2.363,2.363,0,0,0-.169.364h0a2.32,2.32,0,0,0-.108.4,2.593,2.593,0,0,0,0,.875,2.308,2.308,0,0,0,.108.4h0a2.246,2.246,0,0,0,.169.363,2.046,2.046,0,0,0,.225.314h0a1.9,1.9,0,0,0,.272.257h0a1.719,1.719,0,0,0,.313.193h0a1.543,1.543,0,0,0,.345.122h0a1.707,1.707,0,0,0,.372.042h0a1.714,1.714,0,0,0,.373-.042,1.56,1.56,0,0,0,.346-.122,1.788,1.788,0,0,0,.312-.193,1.868,1.868,0,0,0,.272-.257h0a1.99,1.99,0,0,0,.225-.314h0a2.4,2.4,0,0,0,.17-.364h0a2.292,2.292,0,0,0,.107-.4Zm.772-.861a2.791,2.791,0,0,1,.034.425h0a2.76,2.76,0,0,1-.034.422,2.547,2.547,0,0,1-.1.4h0a2.526,2.526,0,0,1-.157.374,2.628,2.628,0,0,1-.475.647,2.629,2.629,0,0,1-.3.258,2.513,2.513,0,0,1-.341.21h0a2.682,2.682,0,0,1-.376.158,2.555,2.555,0,0,1-.4.1,2.734,2.734,0,0,1-.424.034h0a2.736,2.736,0,0,1-.424-.034,2.524,2.524,0,0,1-.4-.1,2.779,2.779,0,0,1-.376-.157,2.711,2.711,0,0,1-.342-.212,2.646,2.646,0,0,1-.3-.258,2.7,2.7,0,0,1-.263-.306,2.587,2.587,0,0,1-.369-.715h0a2.553,2.553,0,0,1-.1-.4,2.751,2.751,0,0,1-.034-.422h0a2.771,2.771,0,0,1,.034-.424,2.482,2.482,0,0,1,.1-.4,2.727,2.727,0,0,1,.158-.377,2.624,2.624,0,0,1,.211-.341,2.769,2.769,0,0,1,.26-.3,2.632,2.632,0,0,1,.3-.26,2.579,2.579,0,0,1,.343-.212,2.7,2.7,0,0,1,.375-.157h0a2.536,2.536,0,0,1,.4-.1,2.759,2.759,0,0,1,.424-.033h0a2.763,2.763,0,0,1,.426.034,2.463,2.463,0,0,1,.4.1h0a2.72,2.72,0,0,1,.375.157h0a2.615,2.615,0,0,1,.341.212,2.571,2.571,0,0,1,.3.26,2.711,2.711,0,0,1,.26.3,2.637,2.637,0,0,1,.212.341,2.6,2.6,0,0,1,.157.376h0a2.574,2.574,0,0,1,.1.4Zm-7.152-2.044v5.015h-.726v-2.382h-2.415v2.382H858.9v-5.1h.726v2.238h2.415v-2.238h.726v.085Zm15.13,1.859a14.328,14.328,0,0,1,1.5.463,1.442,1.442,0,0,1-.527,2.755,2.257,2.257,0,0,1-2.188-.879l.392-.321a1.866,1.866,0,0,0,1.531.639c1.1-.066,1.256-1.262.412-1.529a15,15,0,0,1-1.492-.481,1.4,1.4,0,0,1,.517-2.681,2.222,2.222,0,0,1,2.148.856l-.385.311a1.845,1.845,0,0,0-1.5-.622c-1.074.064-1.233,1.228-.4,1.489Zm-23.7,0a14.268,14.268,0,0,1,1.5.463,1.442,1.442,0,0,1-.527,2.755,2.257,2.257,0,0,1-2.189-.879l.392-.321a1.866,1.866,0,0,0,1.531.639c1.1-.066,1.257-1.262.413-1.529a14.933,14.933,0,0,1-1.493-.481,1.4,1.4,0,0,1,.517-2.681,2.222,2.222,0,0,1,2.148.856l-.385.311a1.844,1.844,0,0,0-1.5-.622c-1.075.064-1.233,1.228-.4,1.489Zm63.655,0a14.34,14.34,0,0,1,1.5.463,1.442,1.442,0,0,1-.527,2.755,2.257,2.257,0,0,1-2.188-.879l.392-.321a1.866,1.866,0,0,0,1.531.639c1.1-.066,1.257-1.262.412-1.529a15.013,15.013,0,0,1-1.492-.481,1.4,1.4,0,0,1,.517-2.681,2.22,2.22,0,0,1,2.147.856l-.384.311a1.845,1.845,0,0,0-1.5-.622c-1.074.064-1.233,1.228-.4,1.489Zm5.582,0a14.288,14.288,0,0,1,1.5.463,1.442,1.442,0,0,1-.527,2.755,2.257,2.257,0,0,1-2.188-.879l.392-.321a1.867,1.867,0,0,0,1.532.639c1.095-.066,1.256-1.262.412-1.529a14.963,14.963,0,0,1-1.493-.481,1.4,1.4,0,0,1,.518-2.681,2.221,2.221,0,0,1,2.147.856l-.385.311a1.844,1.844,0,0,0-1.5-.622c-1.075.064-1.233,1.228-.4,1.489Zm26.375,0a14.291,14.291,0,0,1,1.5.463,1.442,1.442,0,0,1-.527,2.755,2.257,2.257,0,0,1-2.188-.879l.392-.321a1.864,1.864,0,0,0,1.531.639c1.095-.066,1.256-1.262.412-1.529a14.955,14.955,0,0,1-1.493-.481,1.4,1.4,0,0,1,.518-2.681,2.221,2.221,0,0,1,2.147.856l-.385.311a1.843,1.843,0,0,0-1.5-.622c-1.075.064-1.233,1.228-.4,1.489Z" transform="translate(-832.692 -1273.697)" fill="#fff"/>
</svg>
